<?xml version="1.0" encoding="utf-8"?>
<!-- Generator: Adobe Illustrator 19.1.0, SVG Export Plug-In . SVG Version: 6.00 Build 0)  -->
<svg version="1.1" xmlns="http://www.w3.org/2000/svg" xmlns:xlink="http://www.w3.org/1999/xlink" x="0px" y="0px"
	 viewBox="14 157 640 480" style="enable-background:new 14 157 640 480;" xml:space="preserve">
<style type="text/css">
	.st0{fill:none;stroke:#000000;stroke-width:1.5;stroke-linejoin:round;}
	.st1{fill:none;stroke:#000000;stroke-width:0.8272;}
	.st2{fill:none;stroke:#000000;stroke-width:5;}
	.st3{fill:none;stroke:#000000;stroke-width:2;}
	.st4{fill:none;stroke:#000000;stroke-width:10;}
	.st5{fill:none;stroke:#000000;}
	.st6{fill:none;stroke:#FF0000;stroke-width:3;}
	.st7{fill:none;stroke:#000000;stroke-width:3;}
</style>
<g id="Layer_4">
	<g id="g3276_5_">
		<g id="g3215_5_">
			<path id="path3191_5_" class="st0" d="M105,254.7h6.5"/>
			<path id="path3193_5_" class="st0" d="M105,261.3h6.5"/>
			<path id="path3195_5_" class="st0" d="M105,267.8h6.5"/>
			<path id="path3197_5_" class="st0" d="M105,274.3h6.5"/>
			<path id="path3199_5_" class="st0" d="M105,280.9h6.5"/>
			<path id="path3201_5_" class="st0" d="M105,287.4h6.5"/>
			<path id="path3203_5_" class="st0" d="M105,294h6.5"/>
			<path id="path3205_5_" class="st0" d="M105,300.5h6.5"/>
			<path id="path3207_5_" class="st0" d="M105,307.1h6.5"/>
			<path id="path3209_5_" class="st0" d="M105,313.6h6.5"/>
			<path id="path3213_5_" class="st0" d="M105,320.2h6.5"/>
		</g>
		<g id="g3228_5_">
			<path id="path3230_5_" class="st0" d="M105,241.6h6.5"/>
			<path id="path3232_5_" class="st0" d="M105,235.1h6.5"/>
			<path id="path3234_5_" class="st0" d="M105,228.5h6.5"/>
			<path id="path3236_5_" class="st0" d="M105,222h6.5"/>
			<path id="path3238_5_" class="st0" d="M105,215.4h6.5"/>
			<path id="path3240_5_" class="st0" d="M105,208.9h6.5"/>
			<path id="path3242_5_" class="st0" d="M105,202.3h6.5"/>
			<path id="path3244_5_" class="st0" d="M105,195.8h6.5"/>
			<path id="path3246_5_" class="st0" d="M105,189.3h6.5"/>
			<path id="path3248_5_" class="st0" d="M105,182.7h6.5"/>
			<path id="path3250_5_" class="st0" d="M105,176.2h6.5"/>
		</g>
	</g>
	<path id="path2387_2_" class="st1" d="M183.1,253.1c-2.8,41.3-38.7,72.5-80,69.7c-41.3-2.8-72.5-38.7-69.7-80s38.7-72.5,80-69.7
		C154.7,176,185.9,211.8,183.1,253.1"/>
	<circle id="svg_2_2_" class="st2" cx="108.4" cy="248.1" r="25.5"/>
	<circle id="svg_3_2_" class="st3" cx="108.3" cy="248" r="3.3"/>
	<circle id="svg_4_2_" class="st2" cx="108.3" cy="248" r="44.8"/>
	<circle id="svg_5_2_" class="st2" cx="108.3" cy="248" r="64.6"/>
	<g id="g3276_4_">
		<g id="g3215_4_">
			<path id="path3191_4_" class="st0" d="M101.8,244.4v6.5"/>
			<path id="path3193_4_" class="st0" d="M95.3,244.4v6.5"/>
			<path id="path3195_4_" class="st0" d="M88.7,244.4v6.5"/>
			<path id="path3197_4_" class="st0" d="M82.2,244.4v6.5"/>
			<path id="path3199_4_" class="st0" d="M75.7,244.4v6.5"/>
			<path id="path3201_4_" class="st0" d="M69.1,244.4v6.5"/>
			<path id="path3203_4_" class="st0" d="M62.6,244.4v6.5"/>
			<path id="path3205_4_" class="st0" d="M56,244.4v6.5"/>
			<path id="path3207_4_" class="st0" d="M49.5,244.4v6.5"/>
			<path id="path3209_4_" class="st0" d="M42.9,244.4v6.5"/>
			<path id="path3213_4_" class="st0" d="M36.4,244.4v6.5"/>
		</g>
		<g id="g3228_4_">
			<path id="path3230_4_" class="st0" d="M114.9,244.4v6.5"/>
			<path id="path3232_4_" class="st0" d="M121.5,244.4v6.5"/>
			<path id="path3234_4_" class="st0" d="M128,244.4v6.5"/>
			<path id="path3236_4_" class="st0" d="M134.6,244.4v6.5"/>
			<path id="path3238_4_" class="st0" d="M141.1,244.4v6.5"/>
			<path id="path3240_4_" class="st0" d="M147.6,244.4v6.5"/>
			<path id="path3242_4_" class="st0" d="M154.2,244.4v6.5"/>
			<path id="path3244_4_" class="st0" d="M160.7,244.4v6.5"/>
			<path id="path3246_4_" class="st0" d="M167.3,244.4v6.5"/>
			<path id="path3248_4_" class="st0" d="M173.8,244.4v6.5"/>
			<path id="path3250_4_" class="st0" d="M180.4,244.4v6.5"/>
		</g>
	</g>
	<line id="svg_8_2_" class="st4" x1="108.2" y1="173" x2="108.2" y2="222.4"/>
	<line id="svg_9_2_" class="st4" x1="108.2" y1="272.8" x2="108.2" y2="323.2"/>
	<line id="svg_12_2_" class="st4" x1="33" y1="247.6" x2="82.8" y2="247.6"/>
	<line id="svg_13_2_" class="st4" x1="183.2" y1="248" x2="133.5" y2="247.6"/>
	<path id="path3460_5_" class="st5" d="M161.8,301.5L55.4,195"/>
	<path id="path3460_4_" class="st5" d="M55,301.1l106.5-106.5"/>
	<line id="svg_22_2_" class="st6" x1="108.3" y1="235.4" x2="108.3" y2="261.2"/>
	<line id="svg_23_2_" class="st6" x1="95.5" y1="247.8" x2="121.4" y2="247.8"/>
</g>
<g id="Layer_2">
	<g id="g3276_3_">
		<g id="g3215_3_">
			<path id="path3191_3_" class="st0" d="M105.6,551h6.5"/>
			<path id="path3193_3_" class="st0" d="M105.6,557.5h6.5"/>
			<path id="path3195_3_" class="st0" d="M105.6,564.1h6.5"/>
			<path id="path3197_3_" class="st0" d="M105.6,570.6h6.5"/>
			<path id="path3199_3_" class="st0" d="M105.6,577.2h6.5"/>
			<path id="path3201_3_" class="st0" d="M105.6,583.7h6.5"/>
			<path id="path3203_3_" class="st0" d="M105.6,590.3h6.5"/>
			<path id="path3205_3_" class="st0" d="M105.6,596.8h6.5"/>
			<path id="path3207_3_" class="st0" d="M105.6,603.3h6.5"/>
			<path id="path3209_3_" class="st0" d="M105.6,609.9h6.5"/>
			<path id="path3213_3_" class="st0" d="M105.6,616.4h6.5"/>
		</g>
		<g id="g3228_3_">
			<path id="path3230_3_" class="st0" d="M105.6,537.9h6.5"/>
			<path id="path3232_3_" class="st0" d="M105.6,531.3h6.5"/>
			<path id="path3234_3_" class="st0" d="M105.6,524.8h6.5"/>
			<path id="path3236_3_" class="st0" d="M105.6,518.3h6.5"/>
			<path id="path3238_3_" class="st0" d="M105.6,511.7h6.5"/>
			<path id="path3240_3_" class="st0" d="M105.6,505.2h6.5"/>
			<path id="path3242_3_" class="st0" d="M105.6,498.6h6.5"/>
			<path id="path3244_3_" class="st0" d="M105.6,492.1h6.5"/>
			<path id="path3246_3_" class="st0" d="M105.6,485.5h6.5"/>
			<path id="path3248_3_" class="st0" d="M105.6,479h6.5"/>
			<path id="path3250_3_" class="st0" d="M105.6,472.4h6.5"/>
		</g>
	</g>
	<path id="path2387_1_" class="st1" d="M183.7,549.4c-2.8,41.3-38.7,72.5-80,69.7s-72.5-38.7-69.7-80c2.8-41.3,38.7-72.5,80-69.7
		C155.3,472.3,186.5,508.1,183.7,549.4"/>
	<circle id="svg_2_1_" class="st2" cx="108.9" cy="544.4" r="25.5"/>
	<circle id="svg_3_1_" class="st3" cx="108.8" cy="544.3" r="3.3"/>
	<circle id="svg_4_1_" class="st2" cx="108.8" cy="544.3" r="44.8"/>
	<circle id="svg_5_1_" class="st2" cx="108.8" cy="544.3" r="64.6"/>
	<g id="g3276_2_">
		<g id="g3215_2_">
			<path id="path3191_2_" class="st0" d="M102.4,540.7v6.5"/>
			<path id="path3193_2_" class="st0" d="M95.9,540.7v6.5"/>
			<path id="path3195_2_" class="st0" d="M89.3,540.7v6.5"/>
			<path id="path3197_2_" class="st0" d="M82.8,540.7v6.5"/>
			<path id="path3199_2_" class="st0" d="M76.2,540.7v6.5"/>
			<path id="path3201_2_" class="st0" d="M69.7,540.7v6.5"/>
			<path id="path3203_2_" class="st0" d="M63.1,540.7v6.5"/>
			<path id="path3205_2_" class="st0" d="M56.6,540.7v6.5"/>
			<path id="path3207_2_" class="st0" d="M50,540.7v6.5"/>
			<path id="path3209_2_" class="st0" d="M43.5,540.7v6.5"/>
			<path id="path3213_2_" class="st0" d="M37,540.7v6.5"/>
		</g>
		<g id="g3228_2_">
			<path id="path3230_2_" class="st0" d="M115.5,540.7v6.5"/>
			<path id="path3232_2_" class="st0" d="M122,540.7v6.5"/>
			<path id="path3234_2_" class="st0" d="M128.6,540.7v6.5"/>
			<path id="path3236_2_" class="st0" d="M135.1,540.7v6.5"/>
			<path id="path3238_2_" class="st0" d="M141.7,540.7v6.5"/>
			<path id="path3240_2_" class="st0" d="M148.2,540.7v6.5"/>
			<path id="path3242_2_" class="st0" d="M154.8,540.7v6.5"/>
			<path id="path3244_2_" class="st0" d="M161.3,540.7v6.5"/>
			<path id="path3246_2_" class="st0" d="M167.9,540.7v6.5"/>
			<path id="path3248_2_" class="st0" d="M174.4,540.7v6.5"/>
			<path id="path3250_2_" class="st0" d="M180.9,540.7v6.5"/>
		</g>
	</g>
	<line id="svg_8_1_" class="st4" x1="108.7" y1="469.3" x2="108.7" y2="518.7"/>
	<line id="svg_9_1_" class="st4" x1="108.7" y1="569.1" x2="108.7" y2="619.5"/>
	<line id="svg_12_1_" class="st4" x1="33.6" y1="543.9" x2="83.3" y2="543.9"/>
	<line id="svg_13_1_" class="st4" x1="183.8" y1="544.2" x2="134.1" y2="543.9"/>
	<path id="path3460_3_" class="st5" d="M162.4,597.7L55.9,491.3"/>
	<path id="path3460_2_" class="st5" d="M55.6,597.4l106.5-106.5"/>
	<line id="svg_22_1_" class="st6" x1="108.8" y1="531.6" x2="108.8" y2="557.5"/>
	<line id="svg_23_1_" class="st6" x1="96.1" y1="544.1" x2="121.9" y2="544.1"/>
</g>
<g id="Layer_3">
	<g id="g3276">
		<g id="g3215">
			<path id="path3191" class="st0" d="M402.2,416.6h19.6"/>
			<path id="path3193" class="st0" d="M402.2,436.2h19.6"/>
			<path id="path3195" class="st0" d="M402.2,455.7h19.6"/>
			<path id="path3197" class="st0" d="M402.2,475.3h19.6"/>
			<path id="path3199" class="st0" d="M402.2,494.9h19.6"/>
			<path id="path3201" class="st0" d="M402.2,514.5h19.6"/>
			<path id="path3203" class="st0" d="M402.2,534h19.6"/>
			<path id="path3205" class="st0" d="M402.2,553.6h19.6"/>
			<path id="path3207" class="st0" d="M402.2,573.2h19.6"/>
			<path id="path3209" class="st0" d="M402.2,592.8h19.6"/>
			<path id="path3213" class="st0" d="M402.2,612.4h19.6"/>
		</g>
		<g id="g3228">
			<path id="path3230" class="st0" d="M402.2,377.4h19.6"/>
			<path id="path3232" class="st0" d="M402.2,357.8h19.6"/>
			<path id="path3234" class="st0" d="M402.2,338.3h19.6"/>
			<path id="path3236" class="st0" d="M402.2,318.7h19.6"/>
			<path id="path3238" class="st0" d="M402.2,299.1h19.6"/>
			<path id="path3240" class="st0" d="M402.2,279.5h19.6"/>
			<path id="path3242" class="st0" d="M402.2,260h19.6"/>
			<path id="path3244" class="st0" d="M402.2,240.4h19.6"/>
			<path id="path3246" class="st0" d="M402.2,220.8h19.6"/>
			<path id="path3248" class="st0" d="M402.2,201.2h19.6"/>
			<path id="path3250" class="st0" d="M402.2,181.6h19.6"/>
		</g>
	</g>
	<path id="path2387" class="st7" d="M635.9,412.4c-8.5,123.6-115.6,217-239.3,208.5c-123.6-8.5-217-115.6-208.5-239.3
		c8.5-123.6,115.6-217,239.3-208.5c123.6,8.5,216.9,115.5,208.5,239.1"/>
	<circle id="svg_2" class="st7" cx="412" cy="397" r="76.4"/>
	<circle id="svg_3" class="st3" cx="412" cy="397" r="9.8"/>
	<circle id="svg_4" class="st7" cx="412" cy="397" r="134.1"/>
	<circle id="svg_5" class="st7" cx="412" cy="397" r="193.3"/>
	<g id="g3276_1_">
		<g id="g3215_1_">
			<path id="path3191_1_" class="st0" d="M392.4,387.2v19.6"/>
			<path id="path3193_1_" class="st0" d="M372.8,387.2v19.6"/>
			<path id="path3195_1_" class="st0" d="M353.3,387.2v19.6"/>
			<path id="path3197_1_" class="st0" d="M333.7,387.2v19.6"/>
			<path id="path3199_1_" class="st0" d="M314.1,387.2v19.6"/>
			<path id="path3201_1_" class="st0" d="M294.5,387.2v19.6"/>
			<path id="path3203_1_" class="st0" d="M275,387.2v19.6"/>
			<path id="path3205_1_" class="st0" d="M255.4,387.2v19.6"/>
			<path id="path3207_1_" class="st0" d="M235.8,387.2v19.6"/>
			<path id="path3209_1_" class="st0" d="M216.2,387.2v19.6"/>
			<path id="path3213_1_" class="st0" d="M196.6,387.2v19.6"/>
		</g>
		<g id="g3228_1_">
			<path id="path3230_1_" class="st0" d="M431.6,387.2v19.6"/>
			<path id="path3232_1_" class="st0" d="M451.2,387.2v19.6"/>
			<path id="path3234_1_" class="st0" d="M470.7,387.2v19.6"/>
			<path id="path3236_1_" class="st0" d="M490.3,387.2v19.6"/>
			<path id="path3238_1_" class="st0" d="M509.9,387.2v19.6"/>
			<path id="path3240_1_" class="st0" d="M529.5,387.2v19.6"/>
			<path id="path3242_1_" class="st0" d="M549,387.2v19.6"/>
			<path id="path3244_1_" class="st0" d="M568.6,387.2v19.6"/>
			<path id="path3246_1_" class="st0" d="M588.2,387.2v19.6"/>
			<path id="path3248_1_" class="st0" d="M607.8,387.2v19.6"/>
			<path id="path3250_1_" class="st0" d="M627.4,387.2v19.6"/>
		</g>
	</g>
	<line id="svg_8" class="st4" x1="412" y1="323.1" x2="412" y2="470.9"/>
	<line id="svg_9" class="st5" x1="412" y1="321.6" x2="412" y2="472.4"/>
	<line id="svg_12" class="st4" x1="337.6" y1="397" x2="486.4" y2="397"/>
	<line id="svg_13" class="st5" x1="486.4" y1="397.5" x2="337.6" y2="396.5"/>
	<path id="path3460" class="st5" d="M571.2,556.2L252.8,237.8"/>
	<path id="path3460_1_" class="st5" d="M252.8,556.2l318.5-318.5"/>
	<line id="svg_22" class="st6" x1="412" y1="358.3" x2="412" y2="435.7"/>
	<line id="svg_23" class="st6" x1="373.3" y1="397" x2="450.7" y2="397"/>
</g>
</svg>
